<?xml version="1.0" encoding="utf-8"?>
<!-- Svg Vector Icons : http://www.onlinewebfonts.com/icon -->
<!DOCTYPE svg PUBLIC "-//W3C//DTD SVG 1.1//EN" "http://www.w3.org/Graphics/SVG/1.1/DTD/svg11.dtd">
<svg version="1.1" xmlns="http://www.w3.org/2000/svg" xmlns:xlink="http://www.w3.org/1999/xlink" x="0px" y="0px" viewBox="0 0 1000 1000" enable-background="new 0 0 1000 1000" xml:space="preserve">
<metadata> Svg Vector Icons : http://www.onlinewebfonts.com/icon </metadata>
<g><g id="_x33_e91140ac1bfb9903b91c1b0ca091114"><path d="M947.7,406l-2.1-3.3c-11.9-18.5-20-29.8-29.7-41.9c-28.5-35.2-63-64-105.3-87.7c-58.1-32.5-133.4-57.8-228.6-76.7c-17.9-3.6-57.2-10.3-89.2-15.3l-3.2-5.7c-17.5-30.9-36.8-69.1-48.1-94.9c-8.7-20-17-43.1-21.7-59.8c-2.8-9.9-3-10.6-4.6-10.7c-3.3-0.4-56,18.6-89.8,32.4C279.6,61,244,78.9,222,94.3c-7.1,5-15.9,13.5-19,18.3c0-0.1-0.1-0.1-0.1-0.2c0,0-0.4,0.6-0.8,1.7c0,0.1-0.1,0.2-0.1,0.3c-0.6,1.5-0.8,3.2-0.8,5l0.3,0.2c0.1,1.7,0.5,3.5,1.3,5.6c1.9,4.8,7.6,10.5,13.9,16.5c0,0,65.9,64.3,74,73.6c36.5,42.2,52.4,83.7,53.9,141c0.9,36.8-6.2,69.1-23.4,106.7c-30.9,67.4-95.9,141.6-196.4,224.2l1.2-0.4c-0.6,0.5-1.3,1-1.9,1.5c-12,9.6-29.8,27.3-38.9,38.6c-13.6,16.9-24.2,34.9-28.7,48.7c-8.2,24.9-4.2,50.1,11.6,73.4c20.2,29.7,60.4,59.9,107.2,80.5c23.9,10.5,64.1,24,94.3,31.6c50.3,12.7,147.6,26.5,201.1,28.6c10.9,0.4,25.3,0.4,26-0.1c1.2-0.8,9.5-16.6,19.2-36.3c32.9-67.2,56.7-130.3,69.5-184.1c7.8-32.6,13.8-76.1,17.7-127.6c1.1-14.4,1.5-62.6,0.6-78.9c-1.4-26.6-3.7-48.3-7.5-69.6c-0.3-1.5-0.5-3-0.5-4.1c119.2-35.4,251-67.5,338.4-80.9L947.7,406z M621.8,228.4c1.4,0,28.4,7.4,42.4,11.5c34.8,10.4,75,25.1,101,36.9l10.8,4.9l-7.6,1.8c-63.8,14.6-118.4,31.5-171,52.9c-4.4,1.8-8.2,3.2-8.4,3.2c-0.3,0,1.1-3.4,3.1-7.5c15.8-33.6,26-68.9,28.7-98.8C620.9,230.6,621.4,228.4,621.8,228.4z M607.3,246.2c-5.4,22.1-19.7,54.9-37.3,85.7c-3.1,5.4-5.9,10-6.2,10.1c-0.3,0.1-4.3-2-8.9-4.7c-17.2-10.1-36.8-19.6-58.2-28.5c-6-2.5-11.1-4.7-11.3-4.9c-1-0.9,46.7-32.5,71.9-47.6c20.2-12.1,52.7-30.3,53.3-29.7C611,227.1,609,239.1,607.3,246.2z M401,675.5c-28,10.6-58.6,21.3-93.7,32.6c-13.4,4.3-24.7,8-25.1,8.1c-1.3,0.5-0.9-0.3,3-6.4c17.4-27.2,43.8-80.4,58.6-118.1c2.6-6.5,5-13.1,5.4-14.5c0.1-0.5,0.3-0.9,0.5-1.3c2-0.9,4.1-1.7,6.2-2.6c0.5,0.9,1.3,2.8,2,4.9c4.7,12.8,15.4,31.9,24.6,44.1c10.1,13.3,23.2,27.5,34.2,36.9c3.5,3,6.8,5.9,7.3,6.3C424.9,666.5,425.2,666.3,401,675.5z M421.3,688.5c0.1,0.1-1.1,3.2-2.6,6.9c-12.9,31.3-29.9,65.4-51.5,103.7c-5.5,9.8-10.1,17.7-10.3,17.7c-0.2,0-4.6-2.7-9.9-5.9c-31.5-19.3-59.3-43-77.6-66l-2.6-3.3l13.6-3.7c48.4-13.3,89.4-27.4,130.2-45C416.4,690.3,421.2,688.4,421.3,688.5z M353.9,298c-0.6-4.1-1-7.6-0.8-7.8c0.4-0.4,21,4.4,32.2,7.5c16.9,4.7,52.8,16.7,52.8,17.7c0,0.2-4,3.6-8.8,7.7c-19.4,16.2-38.1,33.2-60.5,54.9c-6.6,6.4-12.3,11.6-12.6,11.6c-0.3,0-0.4-0.9-0.2-2.1C359.3,362.6,358.6,330.6,353.9,298z M359.4,264.6c0-0.9,18.3-19.3,26.2-26.2c15.1-13.3,55.6-44.8,57-44.4c0.8,0.3,2.4,5.3,5.3,16.5c5.4,21.5,8,45.6,7.1,67.9c-0.2,6.2-0.6,12-0.9,12.8l-0.5,1.6l-7.7-2.5c-15.8-5.1-41.6-12.7-63.8-18.8C369.7,268,359.4,264.9,359.4,264.6z M404.3,365.9c14-11.8,43.4-35.4,43.8-35c0.4,0.4-4.6,18.8-7.8,28.6c-6.1,18.8-16.3,42.4-26.2,60.2c-2.3,4.2-5.9,10.3-7.9,13.6l-3.7,6l-8.3-8c-9.7-9.4-17.5-15.2-27.6-20.4c-4-2-7.2-3.9-7.2-4.2C359.4,405.5,384.8,382.4,404.3,365.9z M397.2,472.3c0.1-0.1,0.2-0.1,0.3-0.1c0.7-0.1,1.6,1.2,5.7,7.2c8.5,12.6,14.9,29.5,16.6,43.2l0.3,3l-20.3,7.9c-36.4,14.1-69.9,28-92.5,38.4c-6.3,2.9-17.5,8.2-24.8,11.9c-7.3,3.6-13.3,6.5-13.3,6.4c0-0.2,4.6-3.6,10.2-7.7c44.4-32.2,82.7-67.5,111.6-102.8C394.1,475.8,396.9,472.6,397.2,472.3z M406.6,625.8c-11.5-13.4-20.7-26.7-27.3-39.7c-2.8-5.5-7-15.6-8-19c21-8.5,42.9-17.1,65.8-25.7c4.9-1.9,10-3.7,15.2-5.6c0.5,6.1-0.1,33.8-1.1,42c-2.6,21.7-6.8,41.8-13.6,64.6c-1.6,5.5-3.1,10.2-3.4,10.4C433.7,653.4,413.4,633.6,406.6,625.8z M430.4,521.2c-0.4,0.1-0.6-2-0.6-5.4c0-18-4.6-37.1-12.6-53.4c-3.4-6.9-4-8.5-3.3-9.2c2.8-2.5,46-27.2,73.3-41.8c18.7-10,47.5-24.6,47.8-24.3c0.4,0.4-20.1,29-32.2,45.1c-14.5,19.3-40.4,51.7-58.2,72.7C437.1,513.8,430.8,521.1,430.4,521.2z M522,370.7c-27.9,13.9-51.8,27.1-76.7,42.4c-7.1,4.3-13.1,7.9-13.3,7.9c-0.6,0-0.4-0.5,3.6-7.8c13.3-24.3,24-53.3,30.2-81.7c0.6-2.5,1.2-4.1,1.7-4c2.1,0.5,21.3,9.4,35.9,16.7c13.3,6.7,33.4,17.4,34.4,18.3C537.9,362.5,530.8,366.3,522,370.7z M542,210.9c20.6,4,50.5,10.2,52.3,11c0.9,0.4-2.2,2-12.1,6.5c-39.2,17.7-68.3,33.5-97.2,52.8c-7.6,5.1-13.9,9.3-14.1,9.3c-0.1,0-0.2-4.3-0.2-9.4c0-28.2-5.6-56.6-16-80.6c-1.1-2.6-1.9-4.8-1.8-4.9C453.4,195.1,514.3,205.6,542,210.9z M441.7,124.2c0.6,0,1.3,1.3,3.1,5.4c5.1,11.1,20.8,41.1,24.6,46.9c0.3,0.5,0.7,0.9,0.7,1.1c-32.5-5.1-59.5-9.4-84.8-13.6c0.2-0.3,1.6-1.2,3.3-2.1c15.6-8.7,31.3-19.5,45.2-31.3c3.3-2.8,6.6-5.5,7.1-6C441.2,124.3,441.4,124.2,441.7,124.2z M332.5,51.1c20.5-9.5,76.2-32.7,80.3-33.5c0.1,0,0.2,0,0.2,0c0.1,0.1,0.7,4.3,1.3,9.2c2.5,20.7,7.2,40.9,14.4,62.5c5.5,16.3,5.5,15.4-1,13.5c-15.1-4.2-83-15.9-132-22.7c-7.9-1.1-14.5-2.1-14.6-2.2C280.5,77.4,316.5,58.5,332.5,51.1z M275.5,86C307,96.7,386,111.8,429.7,115.5c4.9,0.4,9.1,0.8,9.2,1c0.1,0.1-4.1,2.4-9.3,5c-21.1,10.5-44.2,23.4-60.3,33.4c-3.7,2.3-7.2,4.3-8.7,5c-4.8-0.8-9.6-1.6-14.5-2.5L332,143.6c-26.2-25.3-46.6-44.9-54.5-52.3l-7.7-7.2L275.5,86z M227.9,131.6l0-1.7c0.1-10,12.7-24.8,34.1-39.9l1.9-1.3l20.9,26c11.5,14.3,23,28.5,25.6,31.6c2.2,2.6,3.9,4.8,4.3,5.5c-14.5-2.5-30.6-5.4-42.6-8c-1.1-0.3-2.2-0.5-3.2-0.7c-4.2-1-7.7-1.8-10.8-2.5c-8.1-2-17.5-4.6-25.5-7.3C231.1,132.7,229.5,132.2,227.9,131.6z M328.5,247.4c-0.1,0.1-1.8-2.4-3.7-5.7c-17.3-30.5-44.8-61.5-76.5-86.4c-4-3.1-7.2-5.7-7.2-5.9c0.1-0.1,2.6,0.7,5.6,1.7c5.6,1.9,12.9,4.1,21.5,6.5c6,1.7,12.6,3.4,19.6,5.2c8.9,2.3,16.3,4.2,16.4,4.3c1,1.1,16,48.9,21.1,67.3C327.2,241.4,328.6,247.3,328.5,247.4z M343.5,249c-5.4-20.7-16.5-51.2-26.5-72.6c-1.6-3.5-2.9-6.5-2.9-6.8c0,0,0-0.1,0.2-0.1c0.8-0.1,4.1,0.5,8,1.4c25.3,5.6,70.4,14.3,99.5,19.2c4.8,0.8,8.8,1.7,8.8,2c0,0.3-1.8,1.4-4,2.5c-4.9,2.4-24.6,14.2-31.2,18.7c-16.5,11-31.3,22.8-42,33.5c-4.3,4.3-8,7.8-8.1,7.8C345,254.6,344.3,252.1,343.5,249z M312.2,505.9c9.8-15,14.7-23.5,19.9-34.3c4.6-9.6,9.1-21.1,12.4-31c1.4-4.1,2.8-7.5,3.1-7.5c0.4,0,3.8,1.7,7.7,3.9c9.5,5.2,18,11,25.5,17.3c0.3,0.2-3.6,3.4-8.6,7c-14.1,10.1-35.5,26.3-47.9,36.2C311.2,507.8,310.7,508.2,312.2,505.9z M261.3,571.7c9.7-10.6,17.2-19.4,25.6-30.4c5.6-7.2,6.6-8.3,14.8-14.1c22-15.8,72.2-49.9,72.7-49.3c0.6,0.6-16.4,19.8-27.8,31.5c-28.6,29.2-57,52.1-92.1,74.4c-4.4,2.8-8.4,5.3-8.9,5.6C244.6,590,245.9,588.5,261.3,571.7z M238.3,634.2c1-4.9,1.5-7.1,2.3-8.5c26.6-13.3,54.6-26.3,84.3-39.2c-1.7,4.3-7.9,17.2-14.1,29.2c-14.4,28-30.2,55.6-51.2,89.2c-3.6,5.8-7,11.1-7.4,11.8c-0.7,1.1-1.1,0.7-3.4-3.8c-5-10-9.2-22.6-11.4-34.4C235.4,666.8,235.7,646.7,238.3,634.2z M80.9,773.2c3.4-21.8,20-50.3,43.2-74.3c13.3-13.8,24.4-22.7,40.7-32.6c7.2-4.1,16.1-9.1,27.4-15.2c7.1-3.9,14.2-7.7,21.5-11.5c0.2,0.5-0.1,2.2-0.8,6.4c-0.7,3.8-1.4,11-1.7,15.9c-1.2,21.7,2.3,37.7,13.1,59.6c3,6.1,5.3,11.2,5.2,11.3c-1.1,0.9-99.2,29.6-130.1,38.1c-9.1,2.5-17.1,4.7-17.8,4.9C80.6,776,80.5,775.8,80.9,773.2z M140.9,878.7l-6.6-5.6c-7.8-6.5-21.4-20.4-27.6-28.2c-12.7-15.9-21.4-32.6-24.8-47.9c-1.6-7.1-1.6-10.7-0.1-11.1c2.2-0.7,41.8-10,79-18.6c20.6-4.8,44.5-10.4,53.1-12.5c8.5-2.1,15.6-3.7,15.7-3.6c0.4,0.3-18.5,27.4-44.9,64.3c-9.2,12.8-19.9,28-23.9,33.6c-4,5.7-10,14.6-13.4,19.9L140.9,878.7z M151.1,886.5l-2.7-2l4.3-6.2c13.9-20.1,31.4-42.3,69.6-88.3l26.2-31.5l4.8,5.3c21.4,23.8,43.1,41.6,69.6,56.9c4.7,2.7,8.3,5.1,7.9,5.2c-1.1,0.7-91.7,32.9-133.6,47.5c-23.6,8.2-43.1,14.9-43.2,14.9C154,888.4,152.6,887.5,151.1,886.5z M277.9,945.1l-2.2-0.6c-5.3-1.4-42.8-14.7-52.8-18.6c-12.3-4.9-25.1-10.8-34.5-15.9c-11.8-6.4-26.8-15.8-25.6-16.2c0.3-0.1,20.6-5.7,45.1-12.3c65-17.7,101-27.9,124.6-35.3c4.4-1.4,8.1-2.4,8.2-2.3c0.2,0.2-10.3,17.1-28.8,46.2c-7.8,12.3-16.7,26.3-19.7,31.1c-3,4.8-7.5,12.1-9.9,16.3L277.9,945.1z M289.7,947.8c0-0.3,3.6-4.8,7.9-10c21.4-25.5,42.6-54.1,60.3-81c4.8-7.4,8.9-13.5,9-13.7c0.1-0.1,6.7,2.2,14.7,5.2c19.3,7.2,34.5,11.9,55,17.1c25.2,6.3,61.6,12.6,83.2,14.4c3.3,0.3,5,0.7,4.5,1c-1,0.6-22.9,7.9-38.9,13c-25.5,8-103.4,31-166.9,49.3c-11.8,3.4-21.9,6.3-22.4,6.4C294.7,949.8,289.7,948.5,289.7,947.8z M493.3,976.6c-2,4.7-2.7,5.9-3.7,5.8c-2.5-0.1-37.4-5-58.5-8.2c-37-5.6-98.9-16.4-114.6-20l-3.6-0.8l22.2-5c47.5-10.7,70.3-16.4,93.5-23.5c29.2-8.9,58.1-20.1,87.3-33.7c4.6-2.1,8.6-3.8,9.5-4c0.1,0,0.2,0,0.2,0C526.2,888.7,502.1,955.4,493.3,976.6z M554.2,795.7c-5.2,18.5-9.6,33-17.8,58.7c-3.6,11.3-6.7,20.6-6.9,20.6c-0.2,0-1-0.2-1.9-0.4c-44.1-8-83.6-19.1-120.6-34c-10.3-4.2-25.3-10.8-26.1-11.6c-0.3-0.3,8.7-4.5,19.8-9.3c67.6-29.5,137.6-63,161.5-77.4c2.9-1.7,5-2.7,5.5-2.6c0.1,0,0.1,0.1,0.1,0.1C567.9,743.1,560.5,773.6,554.2,795.7z M565.3,732.6c-19.7,10.9-84.6,37.9-150.8,62.8c-9.7,3.6-19.1,7.2-21,7.9c-1.8,0.7-3.4,1.2-3.4,1.1c0-0.1,2.7-5.4,6.1-11.7c18.6-34.8,37.2-77,46.7-106.4c1-3,1.8-5.5,1.9-5.6c0.1-0.1,3.7,1.8,8.1,4.3c31.7,18.3,75.9,35.5,113.6,44.2l3.4,0.8L565.3,732.6z M575.4,583.7c5.5,2.4,6.1,1.5-6.5,10.1c-27,18.4-60.7,36.4-102,54.8c-7.2,3.2-13.3,5.8-13.5,5.8s0.6-3.6,1.8-8.1c10-37,15.6-74.3,15.8-104.3c0-7.3,0.1-11,0.2-13c1.3-0.5,2.7-0.9,4-1.4c2,1,5.3,2.9,10.4,6.1C516.2,552.9,557.7,576,575.4,583.7z M490.9,522.2c26-8.8,53.7-17.7,82.5-26.5c2.1,8.6,5.9,47.1,7,72.6c0.3,6.1,0.2,10.1-0.2,10.1c-1.2,0-25.1-14.1-42.1-24.7C523.5,544.3,495.9,526,490.9,522.2z M581.4,601.7c0,33.1-3.6,78.4-8.7,111.5c-0.9,5.8-1.7,10.6-1.7,10.7c-0.1,0.1-4.3-1.2-9.3-2.7c-22.3-6.9-46.4-17.2-68.2-29.2c-14.4-7.9-35.3-20.7-34.7-21.3c0.2-0.2,6.3-3.4,13.7-7.2c29.1-15.1,57-31.4,81.2-47.6c9.1-6.1,22.7-15.9,25.7-18.5l2.1-1.9L581.4,601.7L581.4,601.7z M642.3,452.2c-68,18.9-120.5,35.6-181.7,58.2c-6.8,2.5-12.7,4.6-13.1,4.6c-0.8,0-1.7,0.8,13.6-13.3c39.2-36.1,73.8-75.8,99.7-114.4l5.2-7.8l7.2,4.7c16.6,10.8,36.2,25.3,51.2,37.8c8.4,7,24.7,21.6,28.1,25.2l1.8,1.9L642.3,452.2z M669.3,444.6c-0.1,0-2-2.7-4.2-5.9c-16.7-24.9-36.4-46.8-60-66.4c-4.4-3.7-9.4-7.7-11-8.9c-1.7-1.2-3-2.4-3-2.5c0-0.4,25.2-11.2,44.4-19c33.5-13.6,79.2-29.9,113.4-40.4c18.1-5.5,37.2-11,37.5-10.8c0.3,0.3-9.5,15.7-15.7,24.5c-8.9,12.8-21.9,29.6-51.5,66.8c-15.5,19.5-33,41.6-38.9,49.1C674.3,438.5,669.4,444.6,669.3,444.6z M917.4,401.3c-62.5,4.7-142.4,18-219.3,36.5c-5.2,1.3-9.7,2.3-10,2.3c-0.3,0,5.4-5.7,12.7-12.7c45.2-43.4,65.8-70.8,90-119.8c3.6-7.3,6.7-13.6,6.8-14c0,0,0,0,0.1,0c0.5-0.1,4.1,1.6,8.4,4.1c36.1,20.7,71.4,47.2,99.2,74.5c7.9,7.8,27.2,27.9,27,28C932.2,400.2,925.5,400.7,917.4,401.3z"/></g></g>
</svg>